<svg width="1280" height="720" viewBox="0 0 1280 720" fill="none" xmlns="http://www.w3.org/2000/svg">
  <rect width="1280" height="720" rx="32" fill="#030712"/>
  <rect x="24" y="24" width="1232" height="672" rx="24" fill="#07111D" stroke="#1E293B"/>
  <rect x="56" y="56" width="1168" height="64" rx="18" fill="#0F172A"/>
  <rect x="80" y="78" width="210" height="20" rx="10" fill="#E2E8F0" fill-opacity="0.14"/>
  <rect x="954" y="76" width="112" height="24" rx="12" fill="#0EA5E9" fill-opacity="0.16" stroke="#0EA5E9" stroke-opacity="0.4"/>
  <rect x="1082" y="76" width="110" height="24" rx="12" fill="#0F172A" stroke="#334155"/>
  <rect x="56" y="152" width="724" height="232" rx="20" fill="#0F172A" stroke="#1E293B"/>
  <rect x="808" y="152" width="416" height="232" rx="20" fill="#0F172A" stroke="#1E293B"/>
  <rect x="56" y="408" width="560" height="248" rx="20" fill="#0F172A" stroke="#1E293B"/>
  <rect x="640" y="408" width="584" height="248" rx="20" fill="#0F172A" stroke="#1E293B"/>
  <rect x="88" y="188" width="180" height="16" rx="8" fill="#22D3EE" fill-opacity="0.8"/>
  <rect x="88" y="220" width="480" height="14" rx="7" fill="#E2E8F0" fill-opacity="0.12"/>
  <rect x="88" y="248" width="420" height="14" rx="7" fill="#E2E8F0" fill-opacity="0.12"/>
  <rect x="88" y="276" width="392" height="14" rx="7" fill="#E2E8F0" fill-opacity="0.12"/>
  <rect x="88" y="320" width="132" height="24" rx="12" fill="#0EA5E9" fill-opacity="0.16" stroke="#0EA5E9" stroke-opacity="0.4"/>
  <rect x="836" y="188" width="148" height="16" rx="8" fill="#22D3EE" fill-opacity="0.8"/>
  <rect x="836" y="226" width="360" height="12" rx="6" fill="#E2E8F0" fill-opacity="0.12"/>
  <rect x="836" y="252" width="332" height="12" rx="6" fill="#E2E8F0" fill-opacity="0.12"/>
  <rect x="836" y="278" width="286" height="12" rx="6" fill="#E2E8F0" fill-opacity="0.12"/>
  <rect x="836" y="320" width="110" height="22" rx="11" fill="#10B981" fill-opacity="0.12" stroke="#10B981" stroke-opacity="0.35"/>
  <rect x="88" y="444" width="184" height="16" rx="8" fill="#22D3EE" fill-opacity="0.8"/>
  <rect x="88" y="480" width="496" height="14" rx="7" fill="#E2E8F0" fill-opacity="0.12"/>
  <rect x="88" y="506" width="468" height="14" rx="7" fill="#E2E8F0" fill-opacity="0.12"/>
  <rect x="88" y="532" width="438" height="14" rx="7" fill="#E2E8F0" fill-opacity="0.12"/>
  <rect x="88" y="572" width="140" height="22" rx="11" fill="#F59E0B" fill-opacity="0.12" stroke="#F59E0B" stroke-opacity="0.35"/>
  <rect x="668" y="444" width="210" height="16" rx="8" fill="#22D3EE" fill-opacity="0.8"/>
  <rect x="668" y="480" width="528" height="12" rx="6" fill="#E2E8F0" fill-opacity="0.12"/>
  <rect x="668" y="506" width="504" height="12" rx="6" fill="#E2E8F0" fill-opacity="0.12"/>
  <rect x="668" y="542" width="120" height="22" rx="11" fill="#0EA5E9" fill-opacity="0.16" stroke="#0EA5E9" stroke-opacity="0.4"/>
  <rect x="804" y="542" width="144" height="22" rx="11" fill="#0F172A" stroke="#334155"/>
  <text x="80" y="96" fill="#F8FAFC" font-family="ui-monospace, SFMono-Regular, Menlo, monospace" font-size="18">X OPERATOR CONSOLE</text>
  <text x="88" y="198" fill="#F8FAFC" font-family="ui-sans-serif, system-ui" font-size="26" font-weight="700">Dashboard Placeholder</text>
  <text x="836" y="198" fill="#F8FAFC" font-family="ui-sans-serif, system-ui" font-size="26" font-weight="700">Diagnostics Placeholder</text>
  <text x="88" y="454" fill="#F8FAFC" font-family="ui-sans-serif, system-ui" font-size="26" font-weight="700">Activity Placeholder</text>
  <text x="668" y="454" fill="#F8FAFC" font-family="ui-sans-serif, system-ui" font-size="26" font-weight="700">Queue Placeholder</text>
  <text x="922" y="670" fill="#94A3B8" font-family="ui-monospace, SFMono-Regular, Menlo, monospace" font-size="14">Replace with sanitized demo screenshot or GIF</text>
</svg>
